<svg width="116" height="115" viewBox="0 0 116 115" fill="none" xmlns="http://www.w3.org/2000/svg">
<path d="M58 114.299C89.7564 114.299 115.5 88.7121 115.5 57.1494C115.5 25.5867 89.7564 0 58 0C26.2436 0 0.5 25.5867 0.5 57.1494C0.5 88.7121 26.2436 114.299 58 114.299Z" fill="#FFCC4D"/>
<path d="M57.9997 66.6741C46.4263 66.6741 38.7468 65.3343 29.2497 63.4992C27.0807 63.0833 22.8608 63.4992 22.8608 69.8491C22.8608 82.549 37.5393 98.4238 57.9997 98.4238C78.457 98.4238 93.1386 82.549 93.1386 69.8491C93.1386 63.4992 88.9188 63.0801 86.7497 63.4992C77.2526 65.3343 69.5732 66.6741 57.9997 66.6741Z" fill="#664500"/>
<path d="M29.25 69.8491C29.25 69.8491 38.8333 73.0241 58 73.0241C77.1667 73.0241 86.75 69.8491 86.75 69.8491C86.75 69.8491 80.3611 82.549 58 82.549C35.6389 82.549 29.25 69.8491 29.25 69.8491Z" fill="white"/>
<path d="M38.8338 53.9743C43.2444 53.9743 46.8199 48.9991 46.8199 42.8619C46.8199 36.7247 43.2444 31.7495 38.8338 31.7495C34.4232 31.7495 30.8477 36.7247 30.8477 42.8619C30.8477 48.9991 34.4232 53.9743 38.8338 53.9743Z" fill="#664500"/>
<path d="M77.1673 53.9743C81.5779 53.9743 85.1534 48.9991 85.1534 42.8619C85.1534 36.7247 81.5779 31.7495 77.1673 31.7495C72.7567 31.7495 69.1812 36.7247 69.1812 42.8619C69.1812 48.9991 72.7567 53.9743 77.1673 53.9743Z" fill="#664500"/>
</svg>
