<svg width="64" height="64" viewBox="0 0 64 64" fill="none" xmlns="http://www.w3.org/2000/svg">
<path d="M57.42 59.837C55.871 51.502 49.785 20.181 50.694 15.018C50.629 14.453 50.316 13.018 50.316 13.018C50.595 10.428 50.207 7.745 49.028 6.043C48.0625 5.93597 47.095 5.84795 46.126 5.779C42.57 5.515 29.838 6.312 25.786 6.899C21.381 7.538 10.828 9.032 4.441 10.433C-1.946 11.835 5.822 20.306 7.03 21.715C8.238 23.122 19.08 34.411 26.838 40.574C36.918 48.557 59.108 68.91 57.42 59.842" fill="#D08E3F"/>
<path d="M10.76 18.581C10.938 15.14 7.39499 9.832 7.38899 9.828C6.75099 9.941 5.90699 10.129 5.31299 10.241C7.57699 12.446 8.21399 15.943 8.04199 19.261C8.88599 19.054 9.80699 18.818 10.76 18.576V18.581ZM12.172 8.974C11.158 9.135 9.99699 9.362 9.01799 9.525C11.292 11.75 11.942 14.994 11.966 18.278C12.776 18.074 13.612 17.868 14.471 17.666C14.461 14.529 14.457 11.058 12.172 8.974Z" fill="#D99246"/>
<path d="M16.591 8.26C15.581 8.411 14.354 8.624 13.318 8.784C15.065 11.206 15.499 14.32 15.618 17.409C16.124 17.295 16.618 17.178 17.139 17.07C17.879 16.915 18.657 16.774 19.453 16.639C19.23 13.53 18.732 10.492 16.591 8.26ZM26.583 11.14C26.19 9.65 25.449 8.347 24.673 7.054L21.184 7.553C22.665 10.173 23.585 12.99 24.041 15.949C25.012 15.812 25.991 15.673 26.969 15.529C26.999 14.041 26.955 12.552 26.583 11.14ZM30.64 8.098C30.395 7.546 30.14 7.004 29.888 6.461C28.239 6.604 26.815 6.748 25.858 6.884C26.53 8 27.145 9.145 27.474 10.396C27.908 12.046 28.051 13.696 28.09 15.357C29.3629 15.1638 30.6315 14.9434 31.895 14.696C31.886 12.446 31.507 10.052 30.638 8.098H30.64ZM34.01 6.149C32.962 6.219 31.934 6.295 30.967 6.371C31.58 7.737 32.174 9.106 32.456 10.611C32.698 11.902 32.897 13.175 32.999 14.456C33.8314 14.2784 34.6578 14.0739 35.477 13.843C35.593 13.811 35.729 13.78 35.856 13.746C35.674 11.179 35.197 8.356 34.01 6.149ZM38.634 5.886C37.491 5.94 36.309 6.005 35.135 6.077C36.19 8.349 36.727 10.978 36.974 13.499C37.9737 13.3181 38.9816 13.1849 39.994 13.1C40.309 10.657 40.047 7.502 38.629 5.886H38.634ZM43.32 12.955C43.405 12.955 43.486 12.968 43.57 12.97C43.895 10.491 43.925 7.456 43.058 5.737C42.119 5.753 41.068 5.783 39.946 5.828C41.047 7.854 41.433 10.581 41.3 13.014C41.966 12.979 42.641 12.954 43.32 12.955ZM47.08 9.964C47.173 8.845 47.437 7.243 47.268 5.864C46.904 5.834 46.524 5.803 46.124 5.774C45.4515 5.73357 44.7777 5.7169 44.104 5.724C44.431 6.739 44.571 7.84 44.655 8.84C44.772 10.249 44.858 11.672 44.809 13.08C45.469 13.179 46.092 13.33 46.696 13.492C46.903 12.343 46.979 11.17 47.079 9.964H47.08ZM50.736 9.864C50.646 8.634 50.017 6.223 49.593 6.095C49.282 6.001 48.891 6.012 48.343 5.96C48.484 6.994 48.468 8.065 48.408 9.074C48.317 10.66 48.265 12.28 48.036 13.86C48.936 14.101 49.807 14.285 50.686 14.279C50.982 13.153 50.821 11.027 50.736 9.864Z" fill="#D99246"/>
<path d="M20.377 7.716C19.629 7.824 18.392 7.987 17.586 8.106C19.335 10.507 20.258 13.409 20.568 16.462C21.345 16.339 22.146 16.222 22.953 16.106C22.555 13.127 21.99 10.313 20.377 7.716Z" fill="#D99246"/>
<path d="M50.06 13.626C52.148 15.839 53.025 23.2 55.936 31.155C58.598 38.43 57.62 45.185 58.391 49.795C59.162 54.407 59.969 55.877 59.44 57.054C58.62 58.88 56.305 61.987 55.606 57.524C55.508 56.878 52.983 57.183 52.327 56.811C45.716 53.013 36.237 43.867 30.137 38.903C20.602 31.113 4.59401 18.423 8.15801 16.555C10.255 15.456 20.831 12.931 31.089 11.896C38.26 11.172 45.179 12.205 50.056 13.626" fill="#EEE4A7"/>
<path d="M55.621 43.761C57.533 47.546 54.635 53.771 46.854 51.915C43.152 50.406 42.644 45.487 45.036 43.302C46.826 41.661 48.434 41.229 51.191 41.313C52.557 41.549 55.092 42.641 55.621 43.761Z" fill="#912235"/>
<path d="M47.871 49.185C47.259 48.544 46.073 48.482 45.489 47.812C44.967 47.23 44.723 46.677 44.676 45.914C44.623 45.086 44.876 44.02 45.446 43.222C42.062 45.63 43.785 50.486 46.429 51.611C49.343 52.694 51.538 52.171 53.449 51.101C52.31 51.694 48.912 50.27 47.87 49.184" fill="#871830"/>
<path d="M46.511 48.075C46.874 47.811 48.163 48.11 48.357 48.278C48.554 48.446 47.621 48.758 47.129 48.981C46.616 49.21 46.112 49.452 45.917 49.284C45.723 49.114 46.146 48.331 46.511 48.075ZM50.841 45.423C51.218 45.402 51.659 46.159 51.641 46.362C51.617 46.565 50.91 46.385 50.502 46.327C50.079 46.268 49.644 46.223 49.665 46.02C49.688 45.819 50.474 45.452 50.841 45.423ZM50.244 43.507C50.244 43.72 51.003 43.923 51.201 43.898C51.393 43.875 51.177 43.492 51.096 43.265C51.012 43.033 50.946 42.79 50.751 42.818C50.555 42.839 50.249 43.3 50.244 43.507ZM48.336 43.628C48.154 43.497 47.321 43.765 47.174 43.882C47.028 43.999 47.549 44.128 47.82 44.228C48.093 44.33 48.367 44.447 48.512 44.328C48.656 44.212 48.52 43.764 48.336 43.628ZM54.521 43.577C54.311 43.464 53.509 43.806 53.382 43.934C53.251 44.061 53.802 44.137 54.087 44.207C54.386 44.279 54.677 44.365 54.806 44.24C54.937 44.114 54.726 43.69 54.521 43.577ZM44.551 46.075C44.55 46.286 45.31 46.487 45.504 46.462C45.697 46.439 45.484 46.058 45.4 45.831C45.316 45.599 45.25 45.358 45.052 45.382C44.857 45.405 44.553 45.866 44.551 46.075ZM49.651 50.185C49.921 50.193 50.462 49.611 50.499 49.462C50.534 49.31 49.966 49.468 49.642 49.528C49.312 49.585 48.978 49.632 48.936 49.78C48.899 49.933 49.38 50.18 49.651 50.185ZM52.047 47.245C52.381 46.745 54.522 46.503 54.945 46.624C55.37 46.745 54.242 47.589 53.686 48.104C53.111 48.629 52.562 49.182 52.134 49.059C51.714 48.94 51.714 47.747 52.047 47.245Z" fill="#A32F4E"/>
<path d="M32.729 17.688C35.088 22.359 28.903 29.362 20.898 26.102C16.965 24.62 16.282 19.245 19.234 16.547C21.443 14.523 24.51 14.044 27.91 14.146C30.416 14.545 31.665 15.588 32.73 17.688" fill="#912235"/>
<path d="M23.17 24.382C22.415 23.593 20.952 23.517 20.232 22.691C19.587 21.972 19.288 21.291 19.232 20.347C19.168 19.327 19.299 17.032 20.002 16.047C19.727 16.234 18.847 17.057 17.888 18.713C17.606 19.973 16.96 24.625 20.888 26.111C23.466 27.195 26.123 26.981 29.098 25.969C26.931 26.322 24.459 25.723 23.174 24.383" fill="#871830"/>
<path d="M21.489 23C21.938 22.678 23.527 23.045 23.767 23.254C24.008 23.459 22.857 23.848 22.251 24.119C21.618 24.4 20.996 24.701 20.755 24.494C20.518 24.283 21.039 23.32 21.489 23ZM26.842 19.741C27.307 19.714 27.852 20.647 27.828 20.899C27.799 21.149 26.926 20.928 26.424 20.854C25.903 20.782 25.363 20.729 25.39 20.475C25.42 20.226 26.389 19.774 26.842 19.741ZM26.1 17.377C26.1 17.636 27.037 17.888 27.28 17.859C27.518 17.827 27.251 17.354 27.149 17.077C27.047 16.79 26.963 16.491 26.724 16.524C26.482 16.552 26.105 17.12 26.1 17.377ZM23.744 17.524C23.519 17.362 22.492 17.693 22.31 17.838C22.13 17.983 22.772 18.141 23.107 18.264C23.446 18.389 23.782 18.534 23.962 18.387C24.139 18.247 23.971 17.693 23.744 17.524ZM31.379 17.462C31.119 17.323 30.131 17.745 29.974 17.902C29.813 18.059 30.493 18.155 30.845 18.239C31.212 18.329 31.573 18.436 31.731 18.282C31.893 18.127 31.633 17.603 31.379 17.462ZM19.07 20.55C19.068 20.808 20.008 21.06 20.247 21.029C20.484 20.997 20.223 20.527 20.119 20.249C20.014 19.962 19.933 19.663 19.689 19.695C19.447 19.724 19.072 20.295 19.07 20.55ZM25.367 25.612C25.699 25.62 26.366 24.903 26.41 24.719C26.455 24.533 25.754 24.727 25.355 24.801C24.947 24.873 24.536 24.928 24.482 25.114C24.438 25.302 25.032 25.606 25.367 25.612ZM28.323 21.989C28.734 21.374 31.377 21.077 31.899 21.225C32.424 21.373 31.031 22.414 30.345 23.047C29.636 23.697 28.959 24.381 28.431 24.231C27.912 24.081 27.912 22.609 28.323 21.989Z" fill="#A32F4E"/>
<path d="M42.08 35.983C41.048 40.391 32.161 40.03 29.562 34.983C27.781 31.818 29.788 28.348 34.055 27.963C37.705 28.091 38.116 28.154 40.312 29.803C42.807 31.962 42.414 34.71 42.079 35.985" fill="#912235"/>
<path d="M32.03 35.11C31.967 34.167 31.041 33.304 31.02 32.355C30.991 31.521 31.173 30.901 31.659 30.244C32.18 29.535 32.549 28.559 33.564 28.296C29.616 28.401 28.173 32.326 29.554 34.982C30.661 37.134 32.915 38.435 35.211 38.873C33.579 37.903 32.136 36.713 32.03 35.11Z" fill="#871830"/>
<path d="M31.676 33.26C32.154 33.297 33.002 34.424 33.045 34.697C33.091 34.968 32.111 34.585 31.559 34.428C30.983 34.262 30.405 34.115 30.36 33.844C30.318 33.571 31.201 33.224 31.676 33.26ZM37.04 34.07C37.364 34.309 37.204 35.23 37.05 35.384C36.892 35.533 36.435 34.903 36.144 34.574C35.839 34.238 35.511 33.901 35.67 33.75C35.828 33.602 36.72 33.842 37.04 34.07ZM37.86 32.09C37.714 32.264 38.195 32.949 38.374 33.066C38.549 33.177 38.633 32.717 38.721 32.476C38.813 32.229 38.925 31.984 38.748 31.872C38.57 31.758 38.006 31.924 37.86 32.09ZM36.22 30.884C36.162 30.65 35.298 30.298 35.095 30.292C34.896 30.289 35.232 30.752 35.386 31.019C35.54 31.29 35.683 31.574 35.884 31.576C36.081 31.579 36.276 31.12 36.22 30.884ZM41.31 35.09C41.214 34.854 40.325 34.584 40.134 34.6C39.94 34.615 40.336 35.056 40.523 35.307C40.717 35.572 40.896 35.842 41.087 35.83C41.281 35.816 41.399 35.323 41.31 35.09ZM31.441 30.29C31.296 30.46 31.778 31.148 31.955 31.262C32.129 31.373 32.217 30.914 32.303 30.673C32.394 30.424 32.506 30.183 32.327 30.068C32.15 29.951 31.586 30.121 31.441 30.29ZM32.797 37.14C33.012 37.329 33.853 37.226 33.984 37.13C34.117 37.03 33.545 36.769 33.241 36.597C32.929 36.416 32.626 36.226 32.487 36.32C32.353 36.416 32.578 36.95 32.797 37.14ZM36.77 36.39C37.384 36.211 39.301 37.482 39.563 37.87C39.83 38.261 38.327 38.177 37.52 38.216C36.69 38.252 35.862 38.327 35.596 37.937C35.334 37.548 36.152 36.572 36.77 36.39Z" fill="#A32F4E"/>
<path d="M55.11 28.362C54.997 28.361 54.881 28.344 54.77 28.349C51.461 28.49 49.549 31.253 51.254 34.285C52.457 36.621 55.065 37.898 57.551 38.129C56.922 33.838 55.811 31.417 55.11 28.362Z" fill="#912235"/>
<path d="M53.617 34.405C53.557 33.504 52.67 32.677 52.652 31.769C52.625 30.969 52.798 30.376 53.263 29.749C53.686 29.175 54.362 28.778 55.145 28.515C55.134 28.4635 55.1224 28.4122 55.11 28.361C54.994 28.357 54.875 28.345 54.759 28.349C51.449 28.488 49.542 31.253 51.245 34.286C52.306 36.348 54.464 37.594 56.663 38.012C55.102 37.081 53.719 35.942 53.617 34.406" fill="#871830"/>
<path d="M53.28 32.635C53.737 32.671 54.55 33.749 54.591 34.01C54.635 34.269 53.697 33.903 53.168 33.753C52.615 33.594 52.064 33.453 52.019 33.193C51.98 32.934 52.825 32.6 53.28 32.635ZM53.06 29.793C52.921 29.955 53.382 30.615 53.552 30.723C53.718 30.83 53.802 30.391 53.885 30.16C53.972 29.922 54.078 29.689 53.907 29.58C53.737 29.469 53.197 29.631 53.06 29.793ZM54.35 36.35C54.555 36.532 55.36 36.434 55.485 36.342C55.614 36.246 55.065 35.995 54.774 35.83C54.475 35.658 54.184 35.476 54.052 35.566C53.924 35.658 54.14 36.17 54.35 36.35Z" fill="#A32F4E"/>
<path d="M51.939 23.302C50.826 27.456 42.398 26.846 40.084 21.973C38.488 18.913 40.263 15.923 43.653 15.582C47.043 15.241 48.618 16.275 50.132 17.378C52.236 19.097 52.297 22.1 51.939 23.302Z" fill="#912235"/>
<path d="M42.42 22.17C42.39 21.273 41.535 20.424 41.547 19.525C41.545 18.73 41.736 18.148 42.215 17.537C42.735 16.879 42.455 15.852 43.426 15.633C39.674 16.229 38.843 19.409 40.073 21.973C41.06 24.049 43.159 25.355 45.329 25.838C43.809 24.869 42.473 23.695 42.42 22.17Z" fill="#871830"/>
<path d="M42.14 20.402C42.591 20.45 43.365 21.545 43.397 21.804C43.432 22.063 42.515 21.669 41.995 21.503C41.453 21.329 40.907 21.174 40.873 20.913C40.841 20.655 41.69 20.351 42.14 20.402ZM47.21 21.334C47.511 21.572 47.331 22.443 47.181 22.584C47.026 22.721 46.611 22.107 46.344 21.788C46.066 21.458 45.765 21.13 45.919 20.989C46.073 20.854 46.915 21.107 47.21 21.334ZM48.05 19.479C47.907 19.638 48.343 20.305 48.509 20.42C48.671 20.531 48.765 20.096 48.856 19.871C48.951 19.638 49.062 19.409 48.899 19.3C48.735 19.184 48.192 19.325 48.05 19.479ZM46.527 18.28C46.478 18.057 45.668 17.697 45.475 17.687C45.287 17.676 45.593 18.126 45.731 18.384C45.869 18.646 45.996 18.919 46.187 18.927C46.373 18.938 46.574 18.507 46.527 18.28ZM51.24 22.424C51.158 22.197 50.32 21.913 50.14 21.923C49.952 21.932 50.318 22.363 50.488 22.608C50.663 22.865 50.825 23.128 51.007 23.12C51.192 23.111 51.319 22.648 51.24 22.424ZM42.01 17.575C41.866 17.732 42.304 18.4 42.467 18.512C42.63 18.624 42.728 18.192 42.817 17.965C42.91 17.731 43.024 17.506 42.858 17.39C42.693 17.275 42.15 17.42 42.01 17.575ZM43.09 24.12C43.29 24.308 44.09 24.234 44.219 24.144C44.348 24.055 43.811 23.79 43.528 23.617C43.237 23.438 42.956 23.246 42.821 23.331C42.689 23.421 42.889 23.934 43.09 24.12ZM46.885 23.523C47.475 23.371 49.256 24.636 49.494 25.013C49.735 25.391 48.31 25.267 47.544 25.28C46.754 25.29 45.966 25.337 45.725 24.956C45.487 24.581 46.295 23.678 46.885 23.523Z" fill="#A32F4E"/>
<path d="M6.23301 14.633C6.23301 15.553 5.62201 16.299 4.86901 16.299C4.11601 16.299 2.98401 14.779 2.98401 13.86C2.98401 12.941 3.87201 12.613 4.60801 12.895C5.31301 13.163 6.23301 13.715 6.23301 14.633Z" fill="#BD803C"/>
</svg>
