<svg width="30" height="30" viewBox="0 0 30 30" fill="none" xmlns="http://www.w3.org/2000/svg">
<path d="M18.1072 15.3256C18.1072 13.7043 16.7821 12.385 15.1534 12.385C13.5248 12.385 12.1997 13.7043 12.1997 15.3256C12.1997 16.9474 13.5248 18.2664 15.1534 18.2664C16.7821 18.2664 18.1072 16.9474 18.1072 15.3256ZM22.4956 0.0180588H7.50425C3.37394 0.0180588 0.0136719 3.36372 0.0136719 7.47597V9.55395H11.0361C12.1991 8.72907 13.6196 8.24178 15.1534 8.24178C16.6871 8.24178 18.1078 8.72907 19.2709 9.55395H29.9862V7.47597C29.9862 3.36369 26.6259 0.0180588 22.4956 0.0180588ZM25.5292 7.11111C25.5292 7.56684 25.1548 7.93977 24.697 7.93977H22.1254C21.6675 7.93977 21.2931 7.56684 21.2931 7.11111V4.55055C21.2931 4.09485 21.6675 3.72189 22.1254 3.72189H24.697C25.1548 3.72189 25.5292 4.09479 25.5292 4.55055V7.11111ZM22.2686 15.3256C22.2686 19.2321 19.0765 22.4096 15.1533 22.4096C11.23 22.4096 8.03822 19.2321 8.03822 15.3256C8.03822 14.2502 8.28152 13.2303 8.71418 12.3161H0.0136719V22.524C0.0136719 26.6365 3.37394 29.9819 7.50425 29.9819H22.4957C26.626 29.9819 29.9862 26.6365 29.9862 22.524V12.3161H21.5926C22.0253 13.2303 22.2686 14.2502 22.2686 15.3256Z" fill="black"/>
</svg>
