<svg width="149" height="149" viewBox="0 0 149 149" fill="none" xmlns="http://www.w3.org/2000/svg">
<path d="M113.165 37.5C119.393 50.8816 117.975 66.6683 111.13 79.495C105.333 89.9166 97.0085 98.735 89.9168 108.417C86.8335 112.733 83.7501 117.358 81.4685 122.353C80.6668 124.018 80.1118 125.745 79.4951 127.472C78.8785 129.198 78.3235 130.925 77.7685 132.652C77.2135 134.255 76.5351 136.167 74.5001 136.167C72.0951 136.167 71.4168 133.453 70.9235 131.603C69.4435 127.102 67.9635 122.785 65.6818 118.653C63.0918 113.782 59.8235 109.28 56.4935 104.902L113.165 37.5ZM56.7401 52.4233L36.3901 76.5966C40.1518 84.5516 45.7635 91.335 51.1285 98.1183C52.4235 99.66 53.7185 101.263 54.9518 102.928L80.6668 72.465L80.4201 72.5266C71.4168 75.61 61.4268 71.0466 57.8501 62.1666C57.3568 61.1183 56.9868 59.885 56.7401 58.6516C56.4009 56.6101 56.4009 54.5265 56.7401 52.485V52.4233ZM41.0768 28.99L41.0151 29.0516C31.0251 41.6933 29.2985 59.2683 35.2801 74.13L59.8851 44.9L59.5768 44.5916L41.0768 28.99ZM88.1901 15.0533L68.3335 38.5483L68.5801 38.4866C76.8435 35.65 86.0935 39.2266 90.2868 46.75C91.2118 48.4766 91.9518 50.3266 92.1985 52.1766C92.5685 54.52 92.6918 56.185 92.2601 58.4666V58.5283L111.993 35.095C106.835 25.7179 98.3722 18.5957 88.2518 15.115L88.1901 15.0533ZM61.4885 42.9883L85.6001 14.3133L85.3535 14.2516C81.7768 13.3266 78.1385 12.8333 74.5001 12.8333C62.3518 12.8333 50.8818 18.075 42.7418 27.0783L42.6185 27.14L61.4885 42.9883Z" fill="black"/>
</svg>
